<?xml version="1.0" encoding="UTF-8" standalone="no"?>
<svg width="99px" height="47px" viewBox="0 0 99 47" version="1.1" xmlns="http://www.w3.org/2000/svg" xmlns:xlink="http://www.w3.org/1999/xlink" xmlns:sketch="http://www.bohemiancoding.com/sketch/ns">
    <!-- Generator: Sketch 3.3.3 (12081) - http://www.bohemiancoding.com/sketch -->
    <title>Logo</title>
    <desc>Created with Sketch.</desc>
    <defs>
        <path id="path-1" d="M0,0.434062455 L98.9974379,0.434062455 L98.9974379,47.0234326 L0,47.0234326 L0,0.434062455 Z"></path>
        <path id="path-3" d="M0,0.434062455 L98.9974379,0.434062455 L98.9974379,47.0234326 L0,47.0234326 L0,0.434062455 Z"></path>
        <path id="path-5" d="M0,0.434062455 L98.9974379,0.434062455 L98.9974379,47.0234326 L0,47.0234326 L0,0.434062455 Z"></path>
        <path id="path-7" d="M0,0.434062455 L98.9974379,0.434062455 L98.9974379,47.0234326 L0,47.0234326 L0,0.434062455 Z"></path>
    </defs>
    <g id="Page-1" stroke="none" stroke-width="1" fill="none" fill-rule="evenodd" sketch:type="MSPage">
        <g id="Home" sketch:type="MSArtboardGroup" transform="translate(-266.000000, -35.000000)">
            <g id="header" sketch:type="MSLayerGroup">
                <g id="Logo" transform="translate(266.000000, 35.000000)">
                    <g id="Group-3">
                        <mask id="mask-2" sketch:name="Clip 2" fill="white">
                            <use xlink:href="#path-1"></use>
                        </mask>
                        <g id="Clip-2"></g>
                        <path d="M7.03036489,0.434062455 L7.03036489,26.6830851 C7.03036489,28.7787929 7.05794594,30.0981619 7.11446449,30.6420964 C7.17007874,31.1860309 7.39796153,31.6020074 7.79766071,31.8895738 C8.19781203,32.1775923 8.9094936,32.3213755 9.93315755,32.3213755 L10.5087425,32.3213755 L10.5087425,33.4255219 L-9.0429678e-05,33.4255219 L-9.0429678e-05,32.3213755 L0.671802078,32.3213755 C1.63126096,32.3213755 2.31536148,32.1893482 2.72365147,31.9257457 C3.13058502,31.661691 3.37429301,31.290025 3.45477542,30.8102956 C3.53525783,30.330114 3.57459474,28.9546786 3.57459474,26.6830851 L3.57459474,7.2479387 C3.57459474,5.18478559 3.3910225,3.88531112 3.02297371,3.34906313 C2.65447277,2.81371943 1.75921896,2.54559544 0.335403676,2.54559544 L0.335403676,1.44190122 C1.31159205,1.44190122 2.45959681,1.32976842 3.77896582,1.10550281 C5.09833482,0.882141509 6.00579664,0.658328056 6.50225557,0.434062455 L7.03036489,0.434062455 Z" id="Fill-1" fill="#221F20" sketch:type="MSShapeGroup" mask="url(#mask-2)"></path>
                    </g>
                    <path d="M17.0836131,23.6839396 C17.0836131,27.1713601 17.6515114,29.6143179 18.7873082,31.0141693 C19.9226528,32.4140207 21.5142151,33.1130421 23.5619952,33.1130421 C25.6567987,33.1130421 27.260569,32.4140207 28.3724019,31.0141693 C29.4842348,29.6143179 30.039473,27.1713601 30.039473,23.6839396 C30.039473,20.2286216 29.4887563,17.7657693 28.3846099,16.2935742 C27.2809157,14.8222833 25.6735282,14.0861857 23.5619952,14.0861857 C21.4662874,14.0861857 19.8625171,14.818214 18.7511363,16.2818183 C17.6393034,17.7454227 17.0836131,20.2127964 17.0836131,23.6839396 M13.1006379,23.5636681 C13.1006379,20.5568813 14.1084766,18.0415799 16.123702,16.0177637 C18.1389274,13.9943996 20.6185092,12.9829437 23.5619952,12.9829437 C26.5204021,12.9829437 29.0081226,13.9984689 31.0233479,16.0299717 C33.0394776,18.0614744 34.0473164,20.5727065 34.0473164,23.5636681 C34.0473164,26.875203 33.0227481,29.4782212 30.9758723,31.3740794 C28.9276401,33.2694855 26.4566492,34.2171885 23.5619952,34.2171885 C20.6664369,34.2171885 18.1990631,33.2536603 16.1598739,31.3256996 C14.1197804,29.3986431 13.1006379,26.81145 13.1006379,23.5636681" id="Fill-4" fill="#221F20" sketch:type="MSShapeGroup"></path>
                    <path d="M54.6331352,28.626645 L55.6893538,28.626645 C54.6014848,32.3537041 51.8822644,34.2170077 47.5312404,34.2170077 C44.7319898,34.2170077 42.3767488,33.2656874 40.4646132,31.3621427 C38.553382,29.458598 37.5979925,26.9392272 37.5979925,23.8040302 C37.5979925,20.588803 38.6293429,17.9817154 40.6934003,15.9818631 C42.7561013,13.9824629 45.1954419,12.9827628 48.0109699,12.9827628 C49.7065263,12.9827628 51.2659861,13.3548809 52.6893493,14.0982129 C54.1131646,14.8424491 54.8257504,15.749911 54.8257504,16.8219548 C54.8257504,17.221654 54.6932709,17.5973893 54.4292163,17.9496129 C54.1651616,18.3013843 53.785357,18.47727 53.2898023,18.47727 C52.2335837,18.47727 51.5865594,17.8614439 51.3460164,16.6297917 C51.1547576,15.7024354 50.8576961,15.0540546 50.4589013,14.6864579 C50.0420204,14.3184091 49.2349356,14.1343848 48.0344816,14.1343848 C45.8912982,14.1343848 44.2798414,14.8781689 43.2005632,16.3657371 C42.1203807,17.8533053 41.5809676,20.0932484 41.5809676,23.0837578 C41.5809676,26.171027 42.1601697,28.5868559 43.3203825,30.3303401 C44.4801431,32.0738243 46.2358353,32.9455664 48.5865548,32.9455664 C51.7543064,32.9455664 53.7695318,31.5059259 54.6331352,28.626645" id="Fill-6" fill="#221F20" sketch:type="MSShapeGroup"></path>
                    <g id="Group-10">
                        <mask id="mask-4" sketch:name="Clip 9" fill="white">
                            <use xlink:href="#path-3"></use>
                        </mask>
                        <g id="Clip-9"></g>
                        <path d="M69.8216135,13.7746103 L77.7396361,13.7746103 L77.7396361,14.8778524 C76.2832661,14.910407 74.3317937,15.9978239 71.8847666,18.1414594 C71.1002891,18.8133519 69.8853664,19.7967747 68.2372855,21.092632 L75.243777,29.298221 C76.2990913,30.5303253 77.1310444,31.3342452 77.7396361,31.7095283 C78.3468714,32.0857158 78.970384,32.2896347 79.6106261,32.3217372 L79.6106261,33.4254315 L69.8216135,33.4254315 L69.8216135,32.3217372 C71.4525127,32.2896347 72.2686406,31.9378633 72.2686406,31.2659708 C72.2686406,30.962127 71.7328447,30.1862404 70.6612531,28.9383108 L65.6225114,23.0838935 L64.5911609,23.8516415 L64.5911609,26.6829947 C64.5911609,28.7791546 64.6182898,30.0944543 64.6748084,30.629798 C64.7304226,31.166046 64.9583054,31.5820225 65.3584567,31.8777275 C65.7586081,32.1738847 66.4535601,32.3217372 67.4460259,32.3217372 L67.4460259,33.4254315 L57.4883619,33.4254315 L57.4883619,32.3217372 L58.2325981,32.3217372 C59.3842201,32.3217372 60.1311692,32.1576074 60.4757063,31.8297998 C60.819339,31.5019922 61.0151193,31.1099796 61.0639513,30.654214 C61.1114269,30.1979963 61.1353908,28.8745579 61.1353908,26.6829947 L61.1353908,6.98424575 C61.1353908,5.08070103 60.9554357,3.86532616 60.5959777,3.33721684 C60.2356155,2.80955967 59.3674906,2.54550501 57.9925073,2.54550501 L57.9925073,1.44181079 C58.9356889,1.44181079 60.0678684,1.33013013 61.3872374,1.10541238 C62.7075107,0.88205108 63.607286,0.658237626 64.0865633,0.433972025 L64.5911609,0.433972025 L64.5911609,22.5322724 L66.6538619,21.092632 C69.9974992,18.725183 71.6690918,17.02194 71.6690918,15.9819987 C71.6690918,15.2780037 71.0528136,14.910407 69.8216135,14.8778524 L69.8216135,13.7746103 Z" id="Fill-8" fill="#221F20" sketch:type="MSShapeGroup" mask="url(#mask-4)"></path>
                    </g>
                    <g id="Group-13">
                        <mask id="mask-6" sketch:name="Clip 12" fill="white">
                            <use xlink:href="#path-5"></use>
                        </mask>
                        <g id="Clip-12"></g>
                        <path d="M94.798381,19.4609189 C94.8467609,19.0933222 94.8707247,18.7650625 94.8707247,18.477044 C94.8707247,17.0699582 94.4583654,15.9780198 93.6354553,15.2021332 C92.8111888,14.4262465 91.7992807,14.0383032 90.6001832,14.0383032 C87.6883476,14.0383032 85.953002,15.8464446 85.3932423,19.4609189 L94.798381,19.4609189 Z M98.9974831,20.4208299 L85.2969347,20.4208299 C85.233634,21.3649157 85.2006271,22.0684586 85.2006271,22.5323629 C85.2006271,25.9876809 85.7413966,28.5830126 86.8202227,30.3183582 C87.9004052,32.0541558 89.5123142,32.9218286 91.6554975,32.9218286 C94.566881,32.9218286 96.6300341,31.6178326 97.8458612,29.0102929 L98.9974831,29.0102929 C98.485199,30.6420964 97.4696737,31.9180592 95.9509072,32.8372768 C94.4307844,33.7569467 92.775017,34.2172337 90.9831529,34.2172337 C89.319699,34.2172337 87.7484833,33.7971879 86.2695059,32.9575483 C84.7891721,32.1174566 83.5778666,30.9296628 82.6337807,29.394619 C81.6896949,27.8586709 81.2181041,25.9953674 81.2181041,23.8038042 C81.2181041,20.7007097 82.1300874,18.1216553 83.954054,16.0657366 C85.7775685,14.0107222 88.0568485,12.9829889 90.7918941,12.9829889 C93.3668792,12.9829889 95.3581407,13.766562 96.7661308,15.3341605 C98.1736687,16.9022111 98.9170007,18.5973154 98.9974831,20.4208299 L98.9974831,20.4208299 Z" id="Fill-11" fill="#221F20" sketch:type="MSShapeGroup" mask="url(#mask-6)"></path>
                    </g>
                    <path d="M20.8028049,40.2641759 L20.8566105,41.9185868 L20.626467,41.9185868 C20.5812521,41.5559638 20.4790666,41.2570937 20.3212668,41.0206201 C20.1625627,40.7836944 19.9970764,40.636294 19.8239036,40.5770626 C19.6511829,40.5187354 19.359095,40.4893458 18.94764,40.4893458 L17.6508784,40.4893458 L17.6508784,43.3039695 L18.2721303,43.3039695 C18.6736381,43.3039695 18.9408578,43.2361472 19.0728851,43.1005027 C19.2049124,42.9653104 19.2709261,42.6935692 19.2709261,42.2857313 L19.5155384,42.2857313 L19.5155384,44.6255992 L19.2709261,44.6255992 C19.2709261,44.34165 19.2424408,44.1169323 19.1854701,43.9523503 C19.1280472,43.7873161 19.0430433,43.6751833 18.9304584,43.6145954 C18.8178734,43.5540076 18.5985815,43.5241658 18.2721303,43.5241658 L17.6508784,43.5241658 L17.6508784,45.1731509 C17.6508784,45.6958345 17.6639907,46.0376587 17.6897632,46.1990756 C17.7159878,46.3600405 17.7820015,46.4803119 17.8882563,46.5585336 C17.9940591,46.6372074 18.1988823,46.6760922 18.5022738,46.6760922 L18.7274437,46.6760922 L18.7274437,46.9012621 L15.6442439,46.9012621 L15.6442439,46.6760922 L15.8495192,46.6760922 C16.1334684,46.6760922 16.3297008,46.6403725 16.4395729,46.5680287 C16.5489928,46.4965893 16.6186237,46.3849086 16.6498219,46.2329868 C16.6810201,46.0815171 16.6963932,45.7283892 16.6963932,45.1731509 L16.6963932,41.9185868 C16.6963932,41.3900254 16.6810201,41.0486533 16.6498219,40.895375 C16.6186237,40.7425489 16.5539664,40.636294 16.4540416,40.5770626 C16.354569,40.5187354 16.1370856,40.4893458 15.8006872,40.4893458 L15.6835808,40.4893458 L15.6835808,40.2641759 L20.8028049,40.2641759 Z" id="Fill-14" fill="#221F20" sketch:type="MSShapeGroup"></path>
                    <path d="M25.3052985,44.2337222 L24.1301649,41.4046298 L22.960457,44.2337222 L25.3052985,44.2337222 Z M25.3884938,44.4539185 L22.8673144,44.4539185 L22.6959502,44.8748686 C22.4418428,45.485269 22.3147891,45.8831596 22.3147891,46.0694447 C22.3147891,46.26839 22.3821592,46.4189554 22.5178037,46.5220452 C22.6529961,46.6246829 22.8270732,46.6757757 23.0386786,46.6757757 L23.0386786,46.9009456 L21.0664074,46.9009456 L21.0664074,46.6757757 C21.3598517,46.6305608 21.5786915,46.5265667 21.7220225,46.3651497 C21.8662579,46.2037328 22.0385264,45.863265 22.2410889,45.3446508 C22.2573662,45.2958188 22.33604,45.1068208 22.476206,44.7767524 L24.4046189,40.1711689 L24.5954256,40.1711689 L26.8127613,45.442767 L27.1161528,46.1377191 C27.1844272,46.2946146 27.2766655,46.417599 27.3924155,46.5071243 C27.5086176,46.5971019 27.6822426,46.6536204 27.9141947,46.6757757 L27.9141947,46.9009456 L25.3052985,46.9009456 L25.3052985,46.6757757 C25.6249674,46.6757757 25.8410944,46.6527161 25.9536793,46.6052405 C26.0662643,46.5582171 26.1227828,46.4641702 26.1227828,46.3235521 C26.1227828,46.2521126 26.0477262,46.0382465 25.8976129,45.6824057 L25.3884938,44.4539185 Z" id="Fill-16" fill="#221F20" sketch:type="MSShapeGroup"></path>
                    <path d="M34.8242429,44.9481619 L34.7754109,46.9009908 L29.1366683,46.9009908 L29.1366683,46.6758209 L29.3324486,46.6758209 C29.6159456,46.6758209 29.8126302,46.6401012 29.9220501,46.5682096 C30.03147,46.4967701 30.101553,46.3850895 30.1327512,46.2331676 C30.1634973,46.0816979 30.1793225,45.72857 30.1793225,45.1733318 L30.1793225,41.9187677 C30.1793225,41.3902062 30.1634973,41.0488342 30.1327512,40.8955559 C30.101553,40.7422776 30.0364436,40.6364749 29.9365188,40.5772434 C29.8374983,40.5184641 29.6195628,40.4895266 29.2831644,40.4895266 L29.1366683,40.4895266 L29.1366683,40.2643567 L32.322958,40.2643567 L32.322958,40.4895266 L32.0290616,40.4895266 C31.7030626,40.4895266 31.4891964,40.5162034 31.3879152,40.570009 C31.2870861,40.6242668 31.2192638,40.7241916 31.1849005,40.8711399 C31.1505373,41.0180881 31.1338078,41.3671467 31.1338078,41.9187677 L31.1338078,45.3935281 C31.1338078,45.8732575 31.1464679,46.173484 31.1726925,46.2946598 C31.198465,46.4149313 31.2699044,46.5089781 31.3856544,46.5758961 C31.5014044,46.6428141 31.750086,46.6758209 32.1321514,46.6758209 L32.6362969,46.6758209 C33.0436826,46.6758209 33.346622,46.6401012 33.5442108,46.5682096 C33.7413475,46.4967701 33.9294413,46.3398746 34.1071356,46.0984274 C34.2848299,45.8574323 34.4471512,45.4735583 34.5940994,44.9481619 L34.8242429,44.9481619 Z" id="Fill-18" fill="#221F20" sketch:type="MSShapeGroup"></path>
                    <path d="M41.8811489,44.9481619 L41.8323169,46.9009908 L36.1935743,46.9009908 L36.1935743,46.6758209 L36.3893546,46.6758209 C36.6728516,46.6758209 36.8695362,46.6401012 36.9789561,46.5682096 C37.088376,46.4967701 37.158459,46.3850895 37.1896572,46.2331676 C37.2204033,46.0816979 37.2362285,45.72857 37.2362285,45.1733318 L37.2362285,41.9187677 C37.2362285,41.3902062 37.2204033,41.0488342 37.1896572,40.8955559 C37.158459,40.7422776 37.0933496,40.6364749 36.9934248,40.5772434 C36.8944043,40.5184641 36.6764688,40.4895266 36.3400704,40.4895266 L36.1935743,40.4895266 L36.1935743,40.2643567 L39.379864,40.2643567 L39.379864,40.4895266 L39.0859676,40.4895266 C38.7599686,40.4895266 38.5461024,40.5162034 38.4448212,40.570009 C38.3439921,40.6242668 38.2761698,40.7241916 38.2418065,40.8711399 C38.2074433,41.0180881 38.1907138,41.3671467 38.1907138,41.9187677 L38.1907138,45.3935281 C38.1907138,45.8732575 38.2033739,46.173484 38.2295985,46.2946598 C38.255371,46.4149313 38.3268104,46.5089781 38.4425604,46.5758961 C38.5583104,46.6428141 38.806992,46.6758209 39.1890574,46.6758209 L39.6932029,46.6758209 C40.1005886,46.6758209 40.403528,46.6401012 40.6011168,46.5682096 C40.7982535,46.4967701 40.9863473,46.3398746 41.1640416,46.0984274 C41.3417359,45.8574323 41.5040572,45.4735583 41.6510054,44.9481619 L41.8811489,44.9481619 Z" id="Fill-20" fill="#221F20" sketch:type="MSShapeGroup"></path>
                    <g id="Group-24">
                        <mask id="mask-8" sketch:name="Clip 23" fill="white">
                            <use xlink:href="#path-7"></use>
                        </mask>
                        <g id="Clip-23"></g>
                        <path d="M43.5440151,46.8326712 L43.5440151,44.6985308 L43.7886274,44.6985308 C44.0657943,46.0884349 44.7232181,46.7838391 45.7613508,46.7838391 C46.2279679,46.7838391 46.5892345,46.6509075 46.8456026,46.3850443 C47.1015186,46.119181 47.2294766,45.8212152 47.2294766,45.4915991 C47.2294766,45.1588178 47.1168917,44.8798423 46.8917218,44.6546724 C46.6665519,44.4326675 46.255549,44.1943853 45.6587131,43.9402779 C45.1265344,43.711943 44.7250267,43.5116412 44.4546419,43.340277 C44.1833529,43.1689128 43.9721996,42.9464558 43.8202777,42.6724538 C43.668808,42.3979998 43.5928471,42.1063641 43.5928471,41.7961903 C43.5928471,41.3227909 43.756977,40.9289696 44.0847845,40.6142744 C44.4130443,40.2995791 44.8281165,40.1417793 45.3304534,40.1417793 C45.6112375,40.1417793 45.8752922,40.1878984 46.1235216,40.2787803 C46.371299,40.3701142 46.6258585,40.5595644 46.8872003,40.8466786 C47.0373135,40.6671757 47.1218653,40.4732041 47.1413077,40.2643115 L47.3569824,40.2643115 L47.3569824,42.0014656 L47.1413077,42.0014656 C47.0178712,41.4959637 46.798127,41.097621 46.4834318,40.8073417 C46.1682843,40.5170625 45.8034006,40.3719228 45.3892327,40.3719228 C44.9945071,40.3719228 44.70468,40.4786298 44.5202034,40.692496 C44.3361791,40.9063622 44.2439408,41.1401229 44.2439408,41.3951346 C44.2439408,41.7012391 44.3596908,41.9612244 44.5911907,42.1728299 C44.8195257,42.3885046 45.2323372,42.6299519 45.8300773,42.8976237 C46.4006886,43.1517311 46.8157608,43.3565544 47.0757462,43.5116412 C47.3348272,43.6667281 47.5428154,43.8814986 47.6992588,44.1555006 C47.8561543,44.4295025 47.9343759,44.7460064 47.9343759,45.1050122 C47.9343759,45.6729106 47.7453779,46.1345541 47.3664776,46.4899427 C46.9880294,46.8457835 46.4825275,47.0234778 45.8495197,47.0234778 C45.1215608,47.0234778 44.5143255,46.7449544 44.028266,46.1865511 C43.9211068,46.3398294 43.8406244,46.5555042 43.7886274,46.8326712 L43.5440151,46.8326712 Z" id="Fill-22" fill="#221F20" sketch:type="MSShapeGroup" mask="url(#mask-8)"></path>
                    </g>
                    <path d="M58.343058,40.2641759 L58.3968636,41.9185868 L58.1667201,41.9185868 C58.1215052,41.5559638 58.0193197,41.2570937 57.8615199,41.0206201 C57.7028158,40.7836944 57.5373295,40.636294 57.3641567,40.5770626 C57.191436,40.5187354 56.8993482,40.4893458 56.4878931,40.4893458 L55.1911315,40.4893458 L55.1911315,43.3039695 L55.8123834,43.3039695 C56.2138912,43.3039695 56.4811109,43.2361472 56.6131382,43.1005027 C56.7451655,42.9653104 56.8111792,42.6935692 56.8111792,42.2857313 L57.0557915,42.2857313 L57.0557915,44.6255992 L56.8111792,44.6255992 C56.8111792,44.34165 56.7826939,44.1169323 56.7257232,43.9523503 C56.6683003,43.7873161 56.5832964,43.6751833 56.4707115,43.6145954 C56.3581265,43.5540076 56.1388346,43.5241658 55.8123834,43.5241658 L55.1911315,43.5241658 L55.1911315,45.1731509 C55.1911315,45.6958345 55.2042438,46.0376587 55.2300163,46.1990756 C55.2562409,46.3600405 55.3222546,46.4803119 55.4285094,46.5585336 C55.5343122,46.6372074 55.7391354,46.6760922 56.042527,46.6760922 L56.2676968,46.6760922 L56.2676968,46.9012621 L53.184497,46.9012621 L53.184497,46.6760922 L53.3897723,46.6760922 C53.6737215,46.6760922 53.8699539,46.6403725 53.979826,46.5680287 C54.0892459,46.4965893 54.1588768,46.3849086 54.190075,46.2329868 C54.2212732,46.0815171 54.2366463,45.7283892 54.2366463,45.1731509 L54.2366463,41.9185868 C54.2366463,41.3900254 54.2212732,41.0486533 54.190075,40.895375 C54.1588768,40.7425489 54.0942195,40.636294 53.9942947,40.5770626 C53.8948221,40.5187354 53.6773387,40.4893458 53.3409403,40.4893458 L53.2238339,40.4893458 L53.2238339,40.2641759 L58.343058,40.2641759 Z" id="Fill-25" fill="#221F20" sketch:type="MSShapeGroup"></path>
                    <path d="M62.8455516,44.2337222 L61.670418,41.4046298 L60.5007101,44.2337222 L62.8455516,44.2337222 Z M62.9287469,44.4539185 L60.4075675,44.4539185 L60.2362033,44.8748686 C59.9820959,45.485269 59.8550422,45.8831596 59.8550422,46.0694447 C59.8550422,46.26839 59.9224123,46.4189554 60.0580568,46.5220452 C60.1932492,46.6246829 60.3673263,46.6757757 60.5789318,46.6757757 L60.5789318,46.9009456 L58.6066605,46.9009456 L58.6066605,46.6757757 C58.9001048,46.6305608 59.1189446,46.5265667 59.2622756,46.3651497 C59.406511,46.2037328 59.5787795,45.863265 59.781342,45.3446508 C59.7976193,45.2958188 59.8762932,45.1068208 60.0164592,44.7767524 L61.944872,40.1711689 L62.1356787,40.1711689 L64.3530144,45.442767 L64.6564059,46.1377191 C64.7246803,46.2946146 64.8169186,46.417599 64.9326686,46.5071243 C65.0488707,46.5971019 65.2224957,46.6536204 65.4544478,46.6757757 L65.4544478,46.9009456 L62.8455516,46.9009456 L62.8455516,46.6757757 C63.1652205,46.6757757 63.3813475,46.6527161 63.4939324,46.6052405 C63.6065174,46.5582171 63.6630359,46.4641702 63.6630359,46.3235521 C63.6630359,46.2521126 63.5879793,46.0382465 63.437866,45.6824057 L62.9287469,44.4539185 Z" id="Fill-27" fill="#221F20" sketch:type="MSShapeGroup"></path>
                    <path d="M68.6638423,43.4751077 C68.9089068,43.4683254 69.1616577,43.4588303 69.4229995,43.445718 C69.6838891,43.4326057 69.9104154,43.3964338 70.1030307,43.3376545 C70.2951937,43.2788753 70.4511849,43.1934192 70.5705521,43.0808343 C70.6894671,42.9682493 70.783514,42.8208489 70.8517884,42.6377288 C70.9205149,42.4550609 70.9544261,42.2303431 70.9544261,41.9626713 C70.9544261,41.4960542 70.8382239,41.1225796 70.6049154,40.8417954 C70.3711547,40.5614634 69.8629399,40.4208453 69.080271,40.4208453 C68.9590952,40.4208453 68.8207378,40.4276275 68.6638423,40.4402877 L68.6638423,43.4751077 Z M73.6808809,46.901036 L71.8944426,46.901036 C71.5779387,46.6794833 71.0932356,46.0984726 70.4407855,45.1589083 C70.2318929,44.8586817 70.0148617,44.5706632 69.7896918,44.2948527 C69.5645219,44.0190422 69.409435,43.8512951 69.3248833,43.7907072 C69.2398794,43.7301194 69.1073999,43.7002776 68.9283491,43.7002776 L68.6638423,43.7002776 L68.6638423,45.173377 C68.6638423,45.6956084 68.6760503,46.0374326 68.7009185,46.1988496 C68.7253345,46.3602665 68.7904439,46.4800859 68.8966988,46.5583075 C69.0025015,46.6369814 69.2055161,46.6758661 69.5057426,46.6758661 L69.8240551,46.6758661 L69.8240551,46.901036 L66.6472605,46.901036 L66.6472605,46.6758661 L66.8629353,46.6758661 C67.1468845,46.6758661 67.3431169,46.6401464 67.4525368,46.5682548 C67.5615046,46.4968154 67.6311354,46.3851347 67.6605251,46.2332128 C67.6903668,46.0817431 67.7048356,45.7281631 67.7048356,45.173377 L67.7048356,41.9188129 C67.7048356,41.3902514 67.6903668,41.0488794 67.6605251,40.8956011 C67.6311354,40.7423228 67.566026,40.6365201 67.4651969,40.5772886 C67.3634636,40.5185093 67.1450759,40.4891197 66.8086775,40.4891197 L66.6960925,40.4891197 L66.6960925,40.2639498 L67.6460563,40.2151178 C68.2786119,40.1861803 68.7814009,40.1708072 69.153519,40.1708072 C69.7865268,40.1708072 70.3010717,40.2295865 70.6976058,40.3475972 C71.0941399,40.4651558 71.4147131,40.657771 71.6593254,40.9249907 C71.9043898,41.1926626 72.0269221,41.5123315 72.0269221,41.8839975 C72.0269221,42.3180599 71.8668615,42.6888216 71.5467405,42.9949261 C71.2270716,43.3019348 70.7572894,43.4927414 70.1373939,43.5677981 C70.4145609,43.7020862 70.8617357,44.1845285 71.4784661,45.0169337 C71.9808029,45.6919912 72.3755285,46.1346445 72.6630948,46.343537 C72.9497569,46.5524296 73.2893204,46.663206 73.6808809,46.6758661 L73.6808809,46.901036 Z" id="Fill-29" fill="#221F20" sketch:type="MSShapeGroup"></path>
                    <path d="M79.3529468,45.7557441 L81.7710364,40.2639498 L83.8070606,40.2639498 L83.8070606,40.4895718 L83.5624483,40.4895718 C83.2359972,40.4895718 83.022131,40.5162486 82.9213019,40.5700543 C82.8195685,40.6238599 82.7521984,40.7242369 82.7178351,40.8711851 C82.6834718,41.0176812 82.6662902,41.3671919 82.6662902,41.9188129 L82.6662902,45.173377 C82.6662902,45.6956084 82.6794025,46.0374326 82.7056271,46.1988496 C82.7318517,46.3602665 82.7978654,46.480538 82.9041202,46.5583075 C83.009923,46.6369814 83.2129376,46.6758661 83.5131641,46.6758661 L83.8070606,46.6758661 L83.8070606,46.901036 L80.6352396,46.901036 L80.6352396,46.6758661 L80.8699046,46.6758661 C81.1511409,46.6758661 81.3455647,46.6401464 81.4549846,46.5682548 C81.5644046,46.4968154 81.6344876,46.3851347 81.6652336,46.2332128 C81.6964319,46.0817431 81.7122571,45.7281631 81.7122571,45.173377 L81.7122571,40.9494068 L79.0834663,46.901036 L78.853775,46.901036 L76.2055418,40.9494068 L76.2055418,44.8356222 C76.2055418,45.3678008 76.2218192,45.7295195 76.2543739,45.9221347 C76.2873807,46.11475 76.3882098,46.2838535 76.5577654,46.4289931 C76.7273211,46.5741327 76.9660554,46.6564237 77.272612,46.6758661 L77.272612,46.901036 L74.8983808,46.901036 L74.8983808,46.6758661 C75.18233,46.6595888 75.4133779,46.5822714 75.5915243,46.4434618 C75.7692186,46.3051044 75.8772821,46.1346445 75.916619,45.932082 C75.9559559,45.7295195 75.9753983,45.3542364 75.9753983,44.8062325 L75.9753983,41.9188129 C75.9753983,41.3902514 75.9600253,41.0488794 75.9292792,40.8956011 C75.8976288,40.7423228 75.8329716,40.6365201 75.7330468,40.5772886 C75.6335741,40.5185093 75.4160907,40.4895718 75.0801445,40.4895718 L74.8983808,40.4895718 L74.8983808,40.2639498 L76.9199363,40.2639498 L79.3529468,45.7557441 Z" id="Fill-31" fill="#221F20" sketch:type="MSShapeGroup"></path>
                </g>
            </g>
        </g>
    </g>
</svg>